REM MD5 4bf0bb1712377fed0363891e34193861
FILE "Hyper PlayStation Re-mix 1998 No. 7 (Japan) (Disc 1).bin" BINARY
  TRACK 01 MODE2/2352
    INDEX 01 00:00:00
  TRACK 02 AUDIO
    INDEX 00 34:44:32
    INDEX 01 34:47:32
  TRACK 03 AUDIO
    INDEX 00 35:05:33
    INDEX 01 35:08:33
  TRACK 04 AUDIO
    INDEX 00 36:03:18
    INDEX 01 36:07:18
  TRACK 05 AUDIO
    INDEX 00 36:38:12
    INDEX 01 36:43:12
  TRACK 06 AUDIO
    INDEX 00 38:40:49
    INDEX 01 38:46:49
REM LEADOUT 43:12:18
